<svg id="visual" viewBox="0 0 900 600" width="900" height="600" xmlns="http://www.w3.org/2000/svg" xmlns:xlink="http://www.w3.org/1999/xlink" version="1.1"><rect x="0" y="0" width="900" height="600" fill="#FF0066"></rect><g transform="translate(457.5224754739936 327.1735589092591)"><path d="M247.8 -308.9C308.4 -244.5 335.9 -154.3 348.5 -64.2C361.2 25.9 359 116 317.7 179.5C276.3 243.1 195.9 280.1 112.2 312.3C28.5 344.6 -58.4 372 -132.5 350.8C-206.6 329.6 -267.8 259.8 -310.3 181.5C-352.7 103.2 -376.3 16.3 -369.1 -72.1C-361.9 -160.6 -324 -250.8 -257.3 -314C-190.7 -377.3 -95.3 -413.6 -0.9 -412.6C93.6 -411.6 187.3 -373.2 247.8 -308.9" fill="#eef4ff"></path></g></svg>